<?xml version="1.0" encoding="UTF-8" standalone="no"?>
<svg
   width="16"
   height="16"
   viewBox="0 0 16 16"
   fill="none"
   version="1.1"
   id="svg1"
   xmlns="http://www.w3.org/2000/svg"
   xmlns:svg="http://www.w3.org/2000/svg">
  <defs
     id="defs1" />
  <path
     d="m 11.271154,7.387924 -5.46499,-5.46604 c -0.05797,-0.0582 -0.12689,-0.1044 -0.20278,-0.1359 -0.07589,-0.0314 -0.15726,-0.0476 -0.23943,-0.0475 -0.08216,10e-5 -0.1635,0.0164 -0.23932,0.0481 -0.07582,0.0316 -0.14463,0.078 -0.20247,0.1363 -0.11682,0.1177 -0.18238,0.2767 -0.18238,0.4425 0,0.1658 0.06556,0.3249 0.18238,0.4425 l 4.935,4.93404 -4.934,4.93 c -0.11238,0.11836 -0.17409,0.27593 -0.17197,0.43913 0.00212,0.16321 0.06789,0.31913 0.1833,0.43454 0.11541,0.11541 0.27133,0.18118 0.43453,0.1833 0.1632,0.0021 0.32077,-0.0596 0.43914,-0.17197 l 5.46399,-5.465 z"
     fill="#000000"
     id="path1" />
</svg>
