<?xml version="1.0" encoding="UTF-8" standalone="no"?>
<svg
   width="16"
   height="16"
   viewBox="0 0 16 16"
   fill="none"
   version="1.1"
   id="svg1"
   xmlns="http://www.w3.org/2000/svg"
   xmlns:svg="http://www.w3.org/2000/svg">
  <defs
     id="defs1" />
  <path
     d="m 4.7402838,7.9198938 5.4650002,-5.46601 c 0.058,-0.0582 0.1269,-0.1044 0.2028,-0.1359 0.0759,-0.0315 0.1572,-0.0476 0.2394,-0.0475 0.0822,10e-5 0.1635,0.0164 0.2393,0.0481 0.0759,0.0316 0.1447,0.078 0.2025,0.1363 0.1168,0.1177 0.1824,0.2767 0.1824,0.4425 0,0.1658 -0.0656,0.3249 -0.1824,0.4425 l -4.9340002,4.93301 4.9330002,4.9320002 c 0.1124,0.11837 0.1741,0.27594 0.172,0.43914 -0.0021,0.1632 -0.0679,0.31912 -0.1833,0.43453 -0.1154,0.11541 -0.2714,0.18119 -0.4346,0.1833 -0.1632,0.0021 -0.3207,-0.05959 -0.4391,-0.17197 L 4.7392838,8.6238938 Z"
     fill="#000000"
     id="path1" />
</svg>
